<mxfile>
    <diagram id="5obwtHO3HZy37xkEvpsw" name="MotionEstimate">
        <mxGraphModel dx="733" dy="771" grid="1" gridSize="10" guides="1" tooltips="1" connect="1" arrows="1" fold="1" page="1" pageScale="1" pageWidth="827" pageHeight="1169" math="0" shadow="0">
            <root>
                <mxCell id="0"/>
                <mxCell id="1" parent="0"/>
                <mxCell id="pWhNywOQ8hgJ2_Xq2crY-1" style="edgeStyle=orthogonalEdgeStyle;rounded=0;orthogonalLoop=1;jettySize=auto;html=1;fillColor=#b1ddf0;strokeColor=#10739e;fontColor=#000000;" edge="1" parent="1" source="pWhNywOQ8hgJ2_Xq2crY-2" target="pWhNywOQ8hgJ2_Xq2crY-4">
                    <mxGeometry relative="1" as="geometry"/>
                </mxCell>
                <mxCell id="pWhNywOQ8hgJ2_Xq2crY-2" value="&lt;font&gt;Receive request&lt;/font&gt;" style="rounded=1;whiteSpace=wrap;html=1;fillColor=#b1ddf0;strokeColor=#10739e;fontColor=#000000;" vertex="1" parent="1">
                    <mxGeometry x="270" y="230" width="120" height="60" as="geometry"/>
                </mxCell>
                <mxCell id="pWhNywOQ8hgJ2_Xq2crY-3" style="edgeStyle=orthogonalEdgeStyle;rounded=0;orthogonalLoop=1;jettySize=auto;html=1;entryX=0.5;entryY=0;entryDx=0;entryDy=0;fillColor=#b1ddf0;strokeColor=#10739e;fontColor=#000000;" edge="1" parent="1" source="pWhNywOQ8hgJ2_Xq2crY-4" target="pWhNywOQ8hgJ2_Xq2crY-6">
                    <mxGeometry relative="1" as="geometry">
                        <mxPoint x="330" y="310" as="targetPoint"/>
                    </mxGeometry>
                </mxCell>
                <mxCell id="pWhNywOQ8hgJ2_Xq2crY-4" value="&lt;font&gt;Create response message&lt;/font&gt;" style="rounded=0;whiteSpace=wrap;html=1;fillColor=#b1ddf0;strokeColor=#10739e;fontColor=#000000;" vertex="1" parent="1">
                    <mxGeometry x="270" y="340" width="120" height="60" as="geometry"/>
                </mxCell>
                <mxCell id="pWhNywOQ8hgJ2_Xq2crY-15" value="Open&lt;br&gt;water" style="edgeStyle=orthogonalEdgeStyle;rounded=0;orthogonalLoop=1;jettySize=auto;html=1;entryX=1;entryY=0.5;entryDx=0;entryDy=0;strokeColor=#10739E;" edge="1" parent="1" source="pWhNywOQ8hgJ2_Xq2crY-6" target="pWhNywOQ8hgJ2_Xq2crY-8">
                    <mxGeometry x="-0.2174" relative="1" as="geometry">
                        <Array as="points">
                            <mxPoint x="460" y="480"/>
                            <mxPoint x="460" y="590"/>
                        </Array>
                        <mxPoint as="offset"/>
                    </mxGeometry>
                </mxCell>
                <mxCell id="pWhNywOQ8hgJ2_Xq2crY-17" value="Ice" style="edgeStyle=orthogonalEdgeStyle;rounded=0;orthogonalLoop=1;jettySize=auto;html=1;entryX=1;entryY=0.5;entryDx=0;entryDy=0;strokeColor=#10739E;" edge="1" parent="1" source="pWhNywOQ8hgJ2_Xq2crY-6" target="pWhNywOQ8hgJ2_Xq2crY-18">
                    <mxGeometry relative="1" as="geometry">
                        <mxPoint x="180" y="480" as="targetPoint"/>
                    </mxGeometry>
                </mxCell>
                <mxCell id="pWhNywOQ8hgJ2_Xq2crY-20" value="Unknown" style="edgeStyle=orthogonalEdgeStyle;rounded=0;orthogonalLoop=1;jettySize=auto;html=1;exitX=0.5;exitY=1;exitDx=0;exitDy=0;entryX=0.5;entryY=0;entryDx=0;entryDy=0;strokeColor=#10739E;" edge="1" parent="1" source="pWhNywOQ8hgJ2_Xq2crY-6" target="pWhNywOQ8hgJ2_Xq2crY-8">
                    <mxGeometry relative="1" as="geometry">
                        <mxPoint x="330" y="560" as="targetPoint"/>
                        <mxPoint as="offset"/>
                    </mxGeometry>
                </mxCell>
                <mxCell id="pWhNywOQ8hgJ2_Xq2crY-6" value="Select model type" style="rhombus;whiteSpace=wrap;html=1;fillColor=#b1ddf0;strokeColor=#10739e;fontColor=#000000;" vertex="1" parent="1">
                    <mxGeometry x="250" y="440" width="160" height="80" as="geometry"/>
                </mxCell>
                <mxCell id="pWhNywOQ8hgJ2_Xq2crY-21" style="edgeStyle=orthogonalEdgeStyle;rounded=0;orthogonalLoop=1;jettySize=auto;html=1;entryX=0.5;entryY=0;entryDx=0;entryDy=0;strokeColor=#10739E;" edge="1" parent="1" source="pWhNywOQ8hgJ2_Xq2crY-8" target="pWhNywOQ8hgJ2_Xq2crY-10">
                    <mxGeometry relative="1" as="geometry"/>
                </mxCell>
                <mxCell id="pWhNywOQ8hgJ2_Xq2crY-8" value="&lt;font color=&quot;#000000&quot;&gt;Iterate through requests&lt;/font&gt;" style="rounded=0;whiteSpace=wrap;html=1;fillColor=#b1ddf0;strokeColor=#10739e;" vertex="1" parent="1">
                    <mxGeometry x="270" y="560" width="120" height="60" as="geometry"/>
                </mxCell>
                <mxCell id="pWhNywOQ8hgJ2_Xq2crY-25" style="edgeStyle=orthogonalEdgeStyle;rounded=0;orthogonalLoop=1;jettySize=auto;html=1;strokeColor=#10739E;" edge="1" parent="1" source="pWhNywOQ8hgJ2_Xq2crY-10" target="pWhNywOQ8hgJ2_Xq2crY-24">
                    <mxGeometry relative="1" as="geometry"/>
                </mxCell>
                <mxCell id="pWhNywOQ8hgJ2_Xq2crY-10" value="&lt;font&gt;Calculate open water response&lt;/font&gt;" style="rounded=0;whiteSpace=wrap;html=1;fillColor=#b1ddf0;strokeColor=#10739e;fontColor=#000000;" vertex="1" parent="1">
                    <mxGeometry x="270" y="670" width="120" height="60" as="geometry"/>
                </mxCell>
                <mxCell id="pWhNywOQ8hgJ2_Xq2crY-11" value="&lt;font&gt;Return response&lt;/font&gt;" style="rounded=1;whiteSpace=wrap;html=1;fillColor=#b1ddf0;strokeColor=#10739e;fontColor=#000000;" vertex="1" parent="1">
                    <mxGeometry x="270" y="1010" width="120" height="60" as="geometry"/>
                </mxCell>
                <mxCell id="pWhNywOQ8hgJ2_Xq2crY-12" value="Yes" style="edgeStyle=orthogonalEdgeStyle;rounded=0;orthogonalLoop=1;jettySize=auto;html=1;entryX=0.5;entryY=0;entryDx=0;entryDy=0;fillColor=#b1ddf0;strokeColor=#10739e;fontColor=#FFFFFF;" edge="1" parent="1" source="pWhNywOQ8hgJ2_Xq2crY-14" target="pWhNywOQ8hgJ2_Xq2crY-11">
                    <mxGeometry relative="1" as="geometry"/>
                </mxCell>
                <mxCell id="pWhNywOQ8hgJ2_Xq2crY-23" value="No" style="edgeStyle=orthogonalEdgeStyle;rounded=0;orthogonalLoop=1;jettySize=auto;html=1;strokeColor=#10739E;entryX=0;entryY=0.5;entryDx=0;entryDy=0;" edge="1" parent="1" source="pWhNywOQ8hgJ2_Xq2crY-14" target="pWhNywOQ8hgJ2_Xq2crY-8">
                    <mxGeometry x="-0.913" relative="1" as="geometry">
                        <mxPoint x="490" y="730" as="targetPoint"/>
                        <Array as="points">
                            <mxPoint x="200" y="930"/>
                            <mxPoint x="200" y="590"/>
                        </Array>
                        <mxPoint as="offset"/>
                    </mxGeometry>
                </mxCell>
                <mxCell id="pWhNywOQ8hgJ2_Xq2crY-14" value="&lt;font&gt;Reached end of&lt;br&gt;request message&lt;/font&gt;" style="rhombus;whiteSpace=wrap;html=1;fillColor=#b1ddf0;strokeColor=#10739e;fontColor=#000000;" vertex="1" parent="1">
                    <mxGeometry x="250" y="890" width="160" height="80" as="geometry"/>
                </mxCell>
                <mxCell id="pWhNywOQ8hgJ2_Xq2crY-18" value="&lt;font color=&quot;#000000&quot;&gt;Return unimplemented exception&lt;/font&gt;" style="rounded=1;whiteSpace=wrap;html=1;fillColor=#b1ddf0;strokeColor=#10739e;" vertex="1" parent="1">
                    <mxGeometry x="60" y="450" width="120" height="60" as="geometry"/>
                </mxCell>
                <mxCell id="pWhNywOQ8hgJ2_Xq2crY-26" style="edgeStyle=orthogonalEdgeStyle;rounded=0;orthogonalLoop=1;jettySize=auto;html=1;strokeColor=#10739E;" edge="1" parent="1" source="pWhNywOQ8hgJ2_Xq2crY-24" target="pWhNywOQ8hgJ2_Xq2crY-14">
                    <mxGeometry relative="1" as="geometry"/>
                </mxCell>
                <mxCell id="pWhNywOQ8hgJ2_Xq2crY-24" value="&lt;font&gt;Append to response message&lt;/font&gt;" style="rounded=0;whiteSpace=wrap;html=1;fillColor=#b1ddf0;strokeColor=#10739e;fontColor=#000000;" vertex="1" parent="1">
                    <mxGeometry x="270" y="780" width="120" height="60" as="geometry"/>
                </mxCell>
            </root>
        </mxGraphModel>
    </diagram>
    <diagram id="8F_GQ_Hw0v6a2Q_zRLA8" name="MotionTracking">
        <mxGraphModel dx="733" dy="771" grid="1" gridSize="10" guides="1" tooltips="1" connect="1" arrows="1" fold="1" page="1" pageScale="1" pageWidth="827" pageHeight="1169" math="0" shadow="0">
            <root>
                <mxCell id="1GDQzYYmrynxniAG-cH--0"/>
                <mxCell id="1GDQzYYmrynxniAG-cH--1" parent="1GDQzYYmrynxniAG-cH--0"/>
            </root>
        </mxGraphModel>
    </diagram>
    <diagram id="zsTtDmZulgKP6jJt01B1" name="MotionEstimateEvaluation">
        <mxGraphModel dx="733" dy="771" grid="1" gridSize="10" guides="1" tooltips="1" connect="1" arrows="1" fold="1" page="1" pageScale="1" pageWidth="827" pageHeight="1169" math="0" shadow="0">
            <root>
                <mxCell id="yXtv3QbnkMZyqdJEqytn-0"/>
                <mxCell id="yXtv3QbnkMZyqdJEqytn-1" parent="yXtv3QbnkMZyqdJEqytn-0"/>
            </root>
        </mxGraphModel>
    </diagram>
</mxfile>